<?xml version="1.0" standalone="no"?>
<!DOCTYPE svg PUBLIC "-//W3C//DTD SVG 20010904//EN"
 "http://www.w3.org/TR/2001/REC-SVG-20010904/DTD/svg10.dtd">
<svg version="1.0" xmlns="http://www.w3.org/2000/svg"
 width="619.000000pt" height="619.000000pt" viewBox="0 0 619.000000 619.000000"
 preserveAspectRatio="xMidYMid meet">
<metadata>
Created by potrace 1.11, written by Peter Selinger 2001-2013
</metadata>
<g transform="translate(0.000000,619.000000) scale(0.100000,-0.100000)"
fill="#000000" stroke="none">
<path d="M2696 5973 c24 -60 45 -120 48 -135 2 -15 7 -31 9 -35 3 -5 8 -24 11
-43 3 -19 12 -71 20 -115 14 -81 16 -387 2 -450 -4 -16 -13 -64 -22 -106 -32
-162 -121 -392 -211 -544 -136 -230 -308 -447 -602 -760 -293 -313 -364 -393
-483 -546 -242 -310 -378 -630 -434 -1019 -3 -25 -8 -58 -11 -75 -2 -16 -6
-120 -8 -230 -3 -181 1 -255 19 -352 3 -18 8 -48 12 -65 18 -109 101 -332 167
-448 194 -344 481 -621 833 -806 56 -29 81 -38 81 -28 0 8 -3 14 -7 14 -3 0
-6 12 -6 28 0 15 -6 65 -13 112 -30 189 -18 561 25 775 48 241 156 521 270
695 25 39 34 47 30 29 -23 -108 -37 -384 -22 -430 3 -8 7 -34 10 -59 6 -44 46
-193 52 -188 1 2 5 26 9 55 48 384 250 857 479 1123 38 44 191 197 231 230 58
49 161 118 245 165 95 52 220 109 226 102 2 -2 -5 -31 -16 -64 -57 -176 -124
-507 -145 -723 -12 -129 -14 -167 -14 -310 -1 -243 12 -372 55 -575 9 -38 17
-79 20 -90 6 -30 64 -205 79 -240 57 -131 132 -274 159 -304 9 -10 16 -22 16
-27 0 -6 8 -19 18 -30 9 -10 35 -44 58 -74 53 -71 140 -161 148 -153 3 4 6 1
6 -6 0 -24 192 91 330 197 264 204 460 460 563 737 29 78 64 201 73 255 3 19
7 37 9 40 10 16 20 165 19 295 -2 329 -69 591 -260 1013 -13 29 -24 55 -24 58
0 3 -11 29 -24 57 -80 170 -153 397 -174 540 -13 93 -6 306 12 382 30 123 50
180 102 294 14 29 23 55 22 57 -2 2 -26 -17 -53 -42 -28 -25 -63 -58 -80 -72
-50 -46 -130 -143 -178 -218 -84 -131 -105 -187 -167 -452 -15 -65 -48 -128
-95 -180 -103 -115 -243 -126 -327 -27 -54 62 -78 227 -56 375 10 62 20 105
87 358 17 63 33 130 36 150 16 110 21 181 19 288 -2 157 -9 216 -44 369 -34
153 -104 336 -182 479 -21 38 -38 70 -38 72 0 2 -25 41 -56 87 -188 274 -433
494 -691 620 -63 31 -186 77 -203 77 -4 0 12 -48 36 -107z"/>
</g>
</svg>
