<svg xmlns="http://www.w3.org/2000/svg" version="1.1" xmlns:xlink="http://www.w3.org/1999/xlink" xmlns:svgjs="http://svgjs.com/svgjs" width="1440" height="560" preserveAspectRatio="none" viewBox="0 0 1440 560"><g mask="url(&quot;#SvgjsMask1394&quot;)" fill="none"><rect width="1440" height="560" x="0" y="0" fill="url(#SvgjsLinearGradient1395)"></rect><path d="M1440 0L836.12 0L1440 279.36z" fill="rgba(255, 255, 255, .1)"></path><path d="M836.12 0L1440 279.36L1440 372.84000000000003L740.87 0z" fill="rgba(255, 255, 255, .075)"></path><path d="M740.87 0L1440 372.84000000000003L1440 488.05L381.5 0z" fill="rgba(255, 255, 255, .05)"></path><path d="M381.5 0L1440 488.05L1440 493.04L263.36 0z" fill="rgba(255, 255, 255, .025)"></path><path d="M0 560L98.07 560L0 500.62z" fill="rgba(0, 0, 0, .1)"></path><path d="M0 500.62L98.07 560L558.15 560L0 481.52z" fill="rgba(0, 0, 0, .075)"></path><path d="M0 481.52L558.15 560L1059.07 560L0 258.04999999999995z" fill="rgba(0, 0, 0, .05)"></path><path d="M0 258.05L1059.07 560L1260.83 560L0 78.86000000000001z" fill="rgba(0, 0, 0, .025)"></path></g><defs><mask id="SvgjsMask1394"><rect width="1440" height="560" fill="#ffffff"></rect></mask><linearGradient x1="15.28%" y1="-39.29%" x2="84.72%" y2="139.29%" gradientUnits="userSpaceOnUse" id="SvgjsLinearGradient1395"><stop stop-color="rgba(24, 28, 31, 1)" offset="0"></stop><stop stop-color="rgba(35, 36, 38, 1)" offset="1"></stop></linearGradient></defs></svg>