<svg width="760" height="785" viewBox="0 0 760 785" fill="none" xmlns="http://www.w3.org/2000/svg">
<path d="M453.9 7.99987C451.4 12.0999 442.3 27.1999 433.8 41.4999C402 94.8999 361.3 163.1 350.7 181C344.6 191.2 336.6 204.6 332.8 210.8L326 222V230V238H526.5H727V229.9V221.8L743 195.1L759.1 168.3L758.8 161.6L758.5 154.9L738.1 188.9L717.7 223H526.3C360 223 334.9 222.8 335.3 221.6C335.9 220.1 378 149.2 395 121C408.3 98.8999 456.6 17.7999 457.9 15.1999C458.6 13.9999 459 10.1999 458.8 6.69987L458.5 0.499874L453.9 7.99987Z" fill="url(#paint0_linear)"/>
<path d="M264.1 91.9999C262.6 94.6999 220.6 165.2 199.4 200.5L186.2 222.5L140.6 222.8L94.9995 223V267.6C94.9995 307 94.7995 312.5 93.2995 315.3C92.3995 317.1 86.2995 327.4 79.7995 338.2L67.8995 358L68.1995 364.9L68.4995 371.9L80.9995 350.5C87.8995 338.7 93.7995 329.1 94.2995 329C94.6995 329 94.9995 351.7 94.9995 379.4V429.8L83.6995 448.7C56.1995 494.4 44.0995 514.7 42.5995 517.8C41.3995 520.1 40.9995 523 41.1995 527.3L41.4995 533.5L63.5995 496.5C75.6995 476.1 87.3995 456.5 89.5995 452.8C91.6995 449.1 93.7995 446 94.2995 446C94.6995 446 94.9995 451.6 94.9995 458.5V471H102.5H109.9L110.2 444.2L110.5 417.5L119.6 402.5C124.7 394.2 141.5 366.1 157 340C172.5 313.9 188.4 287.3 192.2 281.1L199.1 269.6L198.8 262.8L198.5 255.9L193.9 263.7C191.4 268 178.1 290.2 164.5 313C150.9 335.8 133.4 365.2 125.6 378.2C117.9 391.3 111.2 402 110.8 402C110.3 402 110 393.8 110 383.7C110 367.9 110.2 365 111.8 362C114.5 356.9 182.5 242.9 184.5 240.2C186.1 238 186.1 238 216 238C232.5 238 246 238.2 246 238.5C246 238.8 230.5 265.1 211.5 297C192.5 328.8 176.7 355.6 176.4 356.4C176 357.3 176.9 358.4 178.8 359.4L181.8 360.9L191.2 345.2C196.4 336.6 212.9 308.9 228 283.7L255.2 238H283.1H311V230.5V223H288C275.4 223 265 222.7 265 222.2C265 221.8 270 213.2 276 203L287 184.5V177.5V170.5L271.3 196.7L255.6 223H226C209.7 223 196.1 222.7 195.8 222.4C195.5 222.1 197.6 218 200.5 213.2C203.4 208.4 217.1 185.4 231 162C244.9 138.6 258.5 115.8 261.2 111.3C265.9 103.3 266.1 102.8 265.8 96.2999C265.5 89.8999 265.4 89.5999 264.1 91.9999ZM139 238.5C139 239.8 111.6 285 110.8 285C109.8 285 109.7 239.6 110.7 238.7C111.5 237.9 139 237.8 139 238.5ZM176 239C176 239.5 170 249.9 162.7 262.2C140.6 299 114.3 343.4 113.1 345.7C110.3 351.1 109.9 347.8 110.2 324.2L110.5 300.5L129.4 269.2L148.2 238H162.1C170.2 238 176 238.4 176 239Z" fill="url(#paint1_linear)"/>
<path d="M111.6 168.6C111.3 169.5 99.6996 189.1 85.7996 212.3C71.9996 235.5 51.6996 269.6 40.6996 288C29.6996 306.4 16.2996 328.9 10.8996 337.9C4.1996 349 0.999596 355.3 0.999596 357.4C0.999596 362.1 -8.6004 377.7 79.6996 229.5C105.3 186.5 113 172.8 113 170.3C113 166.7 112.5 166.1 111.6 168.6Z" fill="url(#paint2_linear)"/>
<path d="M75.6994 544.8C65.3994 562.2 48.5994 590.4 38.4994 607.3L20.1994 638.1L19.7994 645C19.5994 648.9 19.6994 652 19.9994 652C20.2994 652 36.8994 624.3 56.9994 590.5C77.0994 556.7 93.7994 529.1 94.2994 529C94.6994 529 94.9994 572.9 94.9994 626.5V724H261.499C353.099 724 427.999 724.2 427.999 724.5C427.999 724.7 421.899 735.1 414.499 747.6L400.999 770.2V777.3V784.4L418.999 754.5L436.899 724.5L436.999 716.8V709L273.799 708.8L110.499 708.5L110.199 610.7L109.999 513H102.199L94.4994 513.1L75.6994 544.8Z" fill="url(#paint3_linear)"/>
<defs>
<linearGradient id="paint0_linear" x1="542.55" y1="238" x2="542.55" y2="0.499878" gradientUnits="userSpaceOnUse">
<stop stop-color="#525BE8"/>
<stop offset="1" stop-color="#9B2CF2" stop-opacity="0.85"/>
</linearGradient>
<linearGradient id="paint1_linear" x1="176.075" y1="533.5" x2="176.075" y2="90.6162" gradientUnits="userSpaceOnUse">
<stop stop-color="#525BE8"/>
<stop offset="1" stop-color="#9B2CF2" stop-opacity="0.85"/>
</linearGradient>
<linearGradient id="paint2_linear" x1="56.8465" y1="360.253" x2="56.8465" y2="167.081" gradientUnits="userSpaceOnUse">
<stop stop-color="#525BE8"/>
<stop offset="1" stop-color="#9B2CF2" stop-opacity="0.85"/>
</linearGradient>
<linearGradient id="paint3_linear" x1="228.347" y1="784.4" x2="228.347" y2="513" gradientUnits="userSpaceOnUse">
<stop stop-color="#525BE8"/>
<stop offset="1" stop-color="#9B2CF2" stop-opacity="0.85"/>
</linearGradient>
</defs>
</svg>
