<svg width="759" height="784" viewBox="0 0 759 784" fill="none" xmlns="http://www.w3.org/2000/svg">
<path d="M305.2 776.4C307.7 772.3 316.8 757.2 325.3 742.9C357.1 689.5 397.8 621.3 408.4 603.4C414.5 593.2 422.5 579.8 426.3 573.6L433.1 562.4V554.4V546.4H232.6H32.0996V554.5V562.6L16.0996 589.3L-0.000396729 616.1L0.299591 622.8L0.599609 629.5L20.9996 595.5L41.3996 561.4H232.8C399.1 561.4 424.2 561.6 423.8 562.8C423.2 564.3 381.1 635.2 364.1 663.4C350.8 685.5 302.5 766.6 301.2 769.2C300.5 770.4 300.1 774.2 300.3 777.7L300.6 783.9L305.2 776.4Z" fill="#FFD369"/>
<path d="M495 692.4C496.5 689.7 538.5 619.2 559.7 583.9L572.9 561.9L618.5 561.6L664.1 561.4V516.8C664.1 477.4 664.3 471.9 665.8 469.1C666.7 467.3 672.8 457 679.3 446.2L691.2 426.4L690.9 419.5L690.6 412.5L678.1 433.9C671.2 445.7 665.3 455.3 664.8 455.4C664.4 455.4 664.1 432.7 664.1 405V354.6L675.4 335.7C702.9 290 715 269.7 716.5 266.6C717.7 264.3 718.1 261.4 717.9 257.1L717.6 250.9L695.5 287.9C683.4 308.3 671.7 327.9 669.5 331.6C667.4 335.3 665.3 338.4 664.8 338.4C664.4 338.4 664.1 332.8 664.1 325.9V313.4H656.6H649.2L648.9 340.2L648.6 366.9L639.5 381.9C634.4 390.2 617.6 418.3 602.1 444.4C586.6 470.5 570.7 497.1 566.9 503.3L560 514.8L560.3 521.6L560.6 528.5L565.2 520.7C567.7 516.4 581 494.2 594.6 471.4C608.2 448.6 625.7 419.2 633.5 406.2C641.2 393.1 647.9 382.4 648.3 382.4C648.8 382.4 649.1 390.6 649.1 400.7C649.1 416.5 648.9 419.4 647.3 422.4C644.6 427.5 576.6 541.5 574.6 544.2C573 546.4 573 546.4 543.1 546.4C526.6 546.4 513.1 546.2 513.1 545.9C513.1 545.6 528.6 519.3 547.6 487.4C566.6 455.6 582.4 428.8 582.7 428C583.1 427.1 582.2 426 580.3 425L577.3 423.5L567.9 439.2C562.7 447.8 546.2 475.5 531.1 500.7L503.9 546.4H476H448.1V553.9V561.4H471.1C483.7 561.4 494.1 561.7 494.1 562.2C494.1 562.6 489.1 571.2 483.1 581.4L472.1 599.9V606.9V613.9L487.8 587.7L503.5 561.4H533.1C549.4 561.4 563 561.7 563.3 562C563.6 562.3 561.5 566.4 558.6 571.2C555.7 576 542 599 528.1 622.4C514.2 645.8 500.6 668.6 497.9 673.1C493.2 681.1 493 681.6 493.3 688.1C493.6 694.5 493.7 694.8 495 692.4ZM620.1 545.9C620.1 544.6 647.5 499.4 648.3 499.4C649.3 499.4 649.4 544.8 648.4 545.7C647.6 546.5 620.1 546.6 620.1 545.9ZM583.1 545.4C583.1 544.9 589.1 534.5 596.4 522.2C618.5 485.4 644.8 441 646 438.7C648.8 433.3 649.2 436.6 648.9 460.2L648.6 483.9L629.7 515.2L610.9 546.4H597C588.9 546.4 583.1 546 583.1 545.4Z" fill="#FFD369"/>
<path d="M647.5 615.8C647.8 614.9 659.4 595.3 673.3 572.1C687.1 548.9 707.4 514.8 718.4 496.4C729.4 478 742.8 455.5 748.2 446.5C754.9 435.4 758.1 429.1 758.1 427C758.1 422.3 767.7 406.7 679.4 554.9C653.8 597.9 646.1 611.6 646.1 614.1C646.1 617.7 646.6 618.3 647.5 615.8Z" fill="#FFD369"/>
<path d="M683.4 239.6C693.7 222.2 710.5 194 720.6 177.1L738.9 146.3L739.3 139.4C739.5 135.5 739.4 132.4 739.1 132.4C738.8 132.4 722.2 160.1 702.1 193.9C682 227.7 665.3 255.3 664.8 255.4C664.4 255.4 664.1 211.5 664.1 157.9V60.4H497.6C406 60.4 331.1 60.2 331.1 59.9C331.1 59.7 337.2 49.3 344.6 36.8L358.1 14.2V7.1V0L340.1 29.9L322.2 59.9L322.1 67.6V75.4L485.3 75.6L648.6 75.9L648.9 173.7L649.1 271.4H656.9L664.6 271.3L683.4 239.6Z" fill="#FFD369"/>
</svg>
