<svg width="100" height="100" viewBox="0 0 100 100" fill="none" xmlns="http://www.w3.org/2000/svg">
<g clip-path="url(#clip0)">
<path d="M41.2109 50.6826V53.9062C41.2109 61.0937 44.4629 67.7992 50 72.2141C55.5371 67.7992 58.7891 61.0936 58.7891 53.9062V50.6826C55.9947 49.5807 53.0461 49.0234 50 49.0234C46.9539 49.0234 44.0053 49.5809 41.2109 50.6826Z" fill="#FFB61D"/>
<path d="M73.4375 43.7555C73.4375 42.7758 72.9479 41.8611 72.1328 41.3178L71.4693 40.8756C65.1115 36.6369 57.6412 34.375 50 34.375C42.3588 34.375 34.8885 36.6369 28.5307 40.8754L27.867 41.3178C27.052 41.8611 26.5625 42.7758 26.5625 43.7553V53.9063C26.5625 68.8428 35.2871 82.3561 48.7969 88.5369C49.5594 88.8857 50.4402 88.8857 51.2029 88.5369C64.7127 82.3561 73.4375 68.8428 73.4375 53.9063V43.7555ZM64.6484 53.9063C64.6484 63.7355 59.7793 72.8457 51.6234 78.2756C51.1318 78.6031 50.5658 78.7668 50 78.7668C49.4342 78.7668 48.868 78.6031 48.3766 78.2756C40.2207 72.8457 35.3516 63.7355 35.3516 53.9063V48.7697C35.3516 47.6455 35.9949 46.6205 37.0072 46.1316C41.0844 44.1625 45.4557 43.1641 50 43.1641C54.5443 43.1641 58.9156 44.1625 62.9928 46.1316C64.0051 46.6205 64.6484 47.6455 64.6484 48.7697V53.9063Z" fill="#FFB61D"/>
<path d="M84.0307 79.8866L100.001 95.8568L98.6932 76.2389C98.6396 75.435 98.2572 74.6885 97.6359 74.1753L79.0225 58.7988C77.8195 69.4764 72.7246 79.2887 64.9072 86.4144L74.1764 97.6349C74.6897 98.2562 75.4361 98.6386 76.24 98.6921L95.8578 100L79.8875 84.0296C78.7434 82.8854 78.7434 81.0306 79.8875 79.8864C81.0316 78.7423 82.8867 78.7425 84.0307 79.8866V79.8866Z" fill="#FAFAFA"/>
<path d="M7.8125 15.625C12.1272 15.625 15.625 12.1272 15.625 7.8125C15.625 3.49778 12.1272 0 7.8125 0C3.49778 0 0 3.49778 0 7.8125C0 12.1272 3.49778 15.625 7.8125 15.625Z" fill="#FAFAFA"/>
<path d="M21.1111 29.3983L16.968 33.5414C15.8238 34.6854 15.8238 36.5405 16.968 37.6846C17.54 38.2567 18.2898 38.5428 19.0395 38.5428C19.7891 38.5428 20.5391 38.2567 21.1109 37.6846L23.0492 35.7463L24.0006 36.8979C24.3436 36.6115 24.9033 36.2524 25.2805 36C30.6687 32.4078 36.7055 30.0598 43.0244 29.0629L35.7455 23.05L37.6838 21.1117C38.8279 19.9678 38.8279 18.1127 37.6838 16.9686C36.5398 15.8246 34.6848 15.8246 33.5406 16.9686L29.3975 21.1117L20.6887 12.403C19.3115 16.2545 16.2537 19.3121 12.4023 20.6893L21.1111 29.3983Z" fill="#FAFAFA"/>
<path d="M20.9787 58.7988L2.36523 74.1751C1.74395 74.6884 1.36152 75.4349 1.30801 76.2388L0 95.8568L15.9703 79.8865C17.1145 78.7423 18.9693 78.7423 20.1135 79.8865C21.2576 81.0306 21.2576 82.8855 20.1135 84.0296L4.14316 99.9999L23.7609 98.6921C24.5648 98.6386 25.3113 98.2562 25.8246 97.6349L35.0938 86.4144C27.2766 79.2886 22.1814 69.4765 20.9787 58.7988V58.7988Z" fill="#FAFAFA"/>
<path d="M92.1875 15.625C96.5022 15.625 100 12.1272 100 7.8125C100 3.49778 96.5022 0 92.1875 0C87.8728 0 84.375 3.49778 84.375 7.8125C84.375 12.1272 87.8728 15.625 92.1875 15.625Z" fill="#FAFAFA"/>
<path d="M74.719 35.9998C75.0983 36.2535 75.6538 36.6097 75.9989 36.8976L76.9503 35.7461L78.8886 37.6843C79.4606 38.2564 80.2104 38.5425 80.9601 38.5425C81.7097 38.5425 82.4597 38.2564 83.0315 37.6843C84.1757 36.5404 84.1757 34.6853 83.0315 33.5412L78.8884 29.398L87.5972 20.6892C83.7458 19.3121 80.688 16.2543 79.3108 12.4029L70.602 21.1117L66.4589 16.9685C65.3149 15.8246 63.4599 15.8246 62.3157 16.9685C61.1716 18.1125 61.1716 19.9675 62.3157 21.1117L64.254 23.05L56.9751 29.0629C63.294 30.0595 69.3306 32.4076 74.719 35.9998V35.9998Z" fill="#FAFAFA"/>
</g>
<defs>
<clipPath id="clip0">
<rect width="100" height="100" fill="white"/>
</clipPath>
</defs>
</svg>
